<svg version="1.1" xmlns="http://www.w3.org/2000/svg" xmlns:xlink="http://www.w3.org/1999/xlink" width="34.51764" height="31.42651" viewBox="0,0,34.51764,31.42651"><g transform="translate(-223.49316,-165.10643)"><g data-paper-data="{&quot;isPaintingLayer&quot;:true}" fill-rule="nonzero" stroke="none" stroke-linecap="butt" stroke-linejoin="miter" stroke-miterlimit="10" stroke-dasharray="" stroke-dashoffset="0" style="mix-blend-mode: normal"><g stroke-width="1"><path d="M250.2853,180.99677c0,5.341 -4.60494,9.67204 -10.2864,9.67204c-5.68145,0 -10.28603,-4.3292 -10.28603,-9.67204c0,-5.341 4.60421,-7.82197 10.28603,-7.82197c5.68108,-0.00037 10.2864,2.48134 10.2864,7.82197z" fill="#ec1c2c"/><g fill="#231f20"><path d="M251.43718,180.89346c0,5.93992 -5.12041,10.75553 -11.43754,10.75553c-6.31603,0 -11.4368,-4.81561 -11.4368,-10.75553c0,-5.23475 3.97845,-7.59145 9.24629,-8.07823c0,0 1.66476,-0.21325 3.35894,-0.06949c5.76638,0.26839 10.26912,2.57987 10.26912,8.14772zM249.69226,181.05118c0,-4.63325 -3.67917,-6.97966 -8.43743,-7.32379c0,0 -3.01739,0.04228 -3.10894,0.05294c-4.46524,0.49303 -7.83631,2.83466 -7.83631,7.27012c0,5.0318 4.33765,9.11246 9.69042,9.11246c5.3524,0 9.69006,-4.07993 9.69226,-9.11173z"/><path d="M243.2913,176.09328c-1.31181,0.06654 -2.56848,0.09964 -3.88286,0.24707c-0.8776,0.09853 -1.72322,0.10625 -2.37324,-0.55664c-0.14118,-0.14523 0.04339,-0.3956 0.21986,-0.2842c0.43457,0.27244 0.87246,0.38274 1.31291,0.40406c0.02867,0.02353 1.57138,-0.18016 2.27582,-0.40369c0.85003,-0.23163 1.7008,-0.42281 2.54752,-0.14302c0.4048,0.13383 0.32648,0.71399 -0.10001,0.73642z"/></g><path d="M233.1788,180.94493c0,1.26144 0.68017,2.2839 -0.03088,2.2839c-0.71105,0 -1.28681,-1.02246 -1.28681,-2.2839c0,-1.26108 0.57576,-2.28354 1.28681,-2.28354c0.71105,0 0.03088,1.02283 0.03088,2.28354z" fill="#ffffff"/></g><g stroke-width="1"><path d="M237.42932,170.07138c0.37538,-0.22428 0.74966,-0.44928 1.12467,-0.67392c0.26987,0.41472 0.5412,0.81951 0.75886,1.28019c0.79488,1.678 0.61987,3.45049 0.59708,5.22519c-0.13788,0.03272 -0.35921,0.05625 -0.49561,0.08051c0.09485,-2.26038 -0.44303,-4.33251 -1.98499,-5.91198z" fill="#99661d"/><path d="M240.80481,175.12744c0,0 -0.08456,0.68973 -0.09229,0.81988c0,0 -1.38645,0.41325 -1.93022,0.20663l-0.01691,-0.59157c0.01103,-1.18203 -0.35663,-2.45156 -0.57429,-2.849c-0.10405,-0.18972 -0.52318,-1.2743 -1.80154,-2.41074c-0.21912,-0.19376 -0.14522,-0.55701 0.08898,-0.69782c0.66436,-0.39855 1.32689,-0.79708 1.99051,-1.19563c0.21325,-0.12758 0.46509,-0.03235 0.60958,0.15993c2.03242,2.70524 1.7883,6.27854 1.72617,6.55832zM239.87242,175.38995c0.04118,-1.63315 0.18016,-3.15085 -0.55957,-4.7123c-0.21766,-0.46068 -0.48899,-0.86547 -0.75886,-1.28019c-0.37501,0.22464 -0.74929,0.44964 -1.12467,0.67392c1.45667,1.49196 2.05155,3.29755 2.03316,5.39836v0.42354l0.40774,-0.05184z" fill="#231f20"/></g><path d="M223.49317,196.53295v-31.42651h34.51764v31.42651z" fill="none" stroke-width="0"/></g></g></svg>