<svg version="1.1" xmlns="http://www.w3.org/2000/svg" xmlns:xlink="http://www.w3.org/1999/xlink" width="24.5" height="24.375" viewBox="0,0,24.5,24.375"><g transform="translate(-227.75,-167.8125)"><g data-paper-data="{&quot;isPaintingLayer&quot;:true}" fill-rule="nonzero" stroke="#000000" stroke-width="1" stroke-linecap="butt" stroke-linejoin="miter" stroke-miterlimit="10" stroke-dasharray="" stroke-dashoffset="0" style="mix-blend-mode: normal"><path d="M228.25,184.4375c0,0 0,-8.09224 0,-11.06482c0,-1.85077 2.55211,-5.06018 5.15278,-5.06018c4.57804,0 10.81688,0 13.44445,0c1.96295,0 4.90277,3.20941 4.90277,5.06018c0,2.97258 0,11.06482 0,11.06482z" data-paper-data="{&quot;index&quot;:null}" fill="#ff0000"/><path d="M228.25,191.6875v-7.125h23.5v7.125z" data-paper-data="{&quot;index&quot;:null}" fill="#ff0000"/><path d="M245.58333,180.19246c-2.10832,0 -3.81746,-1.70914 -3.81746,-3.81746c0,-2.10832 1.70914,-3.81746 3.81746,-3.81746c2.10832,0 3.81746,1.70914 3.81746,3.81746c0,2.10832 -1.70914,3.81746 -3.81746,3.81746z" data-paper-data="{&quot;index&quot;:null}" fill="#ffffff"/><path d="M248.00888,177.27731c-0.49833,0 -0.90231,-0.40398 -0.90231,-0.90231c0,-0.49833 0.40398,-0.90231 0.90231,-0.90231c0.49833,0 0.90231,0.40398 0.90231,0.90231c0,0.49833 -0.40398,0.90231 -0.90231,0.90231z" data-paper-data="{&quot;index&quot;:null}" fill="#000000"/></g></g></svg>