<svg version="1.1" xmlns="http://www.w3.org/2000/svg" xmlns:xlink="http://www.w3.org/1999/xlink" width="26.75944" height="27.83472" viewBox="0,0,26.75944,27.83472"><g transform="translate(-225.49056,-164.35278)"><g data-paper-data="{&quot;isPaintingLayer&quot;:true}" fill-rule="nonzero" stroke="#000000" stroke-width="1" stroke-linecap="butt" stroke-linejoin="miter" stroke-miterlimit="10" stroke-dasharray="" stroke-dashoffset="0" style="mix-blend-mode: normal"><path d="M228.21015,184.31789c0,0 -1.5902,-7.93446 -2.17434,-10.84908c-0.36369,-1.81468 1.50798,-5.46303 4.05794,-5.97408c4.48878,-0.89963 10.60597,-2.12561 13.18231,-2.64196c1.92468,-0.38574 5.43785,2.18339 5.80155,3.99808c0.58414,2.91462 2.17434,10.84908 2.17434,10.84908z" data-paper-data="{&quot;index&quot;:null}" fill="#ff0000"/><path d="M228.25,191.6875v-7.125h23.5v7.125z" data-paper-data="{&quot;index&quot;:null}" fill="#ff0000"/><path d="M244.37133,176.74947c-2.06721,0.4143 -4.07889,-0.92565 -4.49319,-2.99286c-0.4143,-2.06721 0.92565,-4.07889 2.99286,-4.49319c2.06721,-0.4143 4.07889,0.92565 4.49319,2.99286c0.4143,2.06721 -0.92565,4.07889 -2.99286,4.49319z" data-paper-data="{&quot;index&quot;:null}" fill="#ffffff"/><path d="M246.17673,173.41452c-0.48861,0.09793 -0.9641,-0.21879 -1.06203,-0.7074c-0.09793,-0.48861 0.21879,-0.9641 0.7074,-1.06203c0.48861,-0.09793 0.9641,0.21879 1.06203,0.7074c0.09793,0.48861 -0.21879,0.9641 -0.7074,1.06203z" data-paper-data="{&quot;index&quot;:null}" fill="#000000"/></g></g></svg>