<svg version="1.1" xmlns="http://www.w3.org/2000/svg" xmlns:xlink="http://www.w3.org/1999/xlink" width="516.01201" height="384.38439" viewBox="0,0,516.01201,384.38439"><g transform="translate(17.25525,11.44143)"><g data-paper-data="{&quot;isPaintingLayer&quot;:true}" fill-rule="nonzero" stroke-miterlimit="10" stroke-dasharray="" stroke-dashoffset="0" style="mix-blend-mode: normal"><path d="M-8.4985,372.94295v-384.38438h495.4955v384.38439z" fill="#ffffff" stroke="none" stroke-width="NaN" stroke-linecap="butt" stroke-linejoin="miter"/><text transform="translate(194.30704,101.9967) scale(1.23313,1.23313)" font-size="40" xml:space="preserve" fill="#b100c7" fill-rule="nonzero" stroke="none" stroke-width="1" stroke-linecap="butt" stroke-linejoin="miter" stroke-miterlimit="10" stroke-dasharray="" stroke-dashoffset="0" font-family="Sans Serif" font-weight="normal" text-anchor="start" style="mix-blend-mode: normal"><tspan x="0" dy="0">Classic</tspan></text><text transform="translate(155.34773,159.55698) scale(1.23313,1.23313)" font-size="40" xml:space="preserve" fill="#b100c7" fill-rule="nonzero" stroke="none" stroke-width="1" stroke-linecap="butt" stroke-linejoin="miter" stroke-miterlimit="10" stroke-dasharray="" stroke-dashoffset="0" font-family="Sans Serif" font-weight="normal" text-anchor="start" style="mix-blend-mode: normal"><tspan x="0" dy="0">Platformer</tspan></text><path d="M-15.25525,370.69069v-192.69069h512.01201v192.69069z" fill="#b100c7" stroke="#000000" stroke-width="4" stroke-linecap="butt" stroke-linejoin="miter"/><g><path d="M105.02096,118.84457l6.90141,1.08788c6.48627,6.67169 10.13552,21.41799 2.4022,26.1223c-0.56117,0.34294 -11.14956,-1.63757 -11.8338,-1.40785" fill="#faa51f" stroke="#8e5322" stroke-width="1.4" stroke-linecap="round" stroke-linejoin="round"/><path d="M118.35286,138.41989c-3.25872,13.91275 -9.20516,19.42928 -15.25661,16.86792c-2.58105,-1.06655 -4.20385,-8.60953 2.45307,-15.59954" fill="#faa51f" stroke="#8e5322" stroke-width="1.4" stroke-linecap="round" stroke-linejoin="round"/><path d="M86.96343,143.91345c1.14859,1.14859 3.44742,3.11925 -1.64085,7.87771c-5.08499,4.75846 -16.57093,3.2817 -17.8836,2.95353c-4.92254,-0.98451 -11.15777,-2.46127 -17.39463,-6.39931c-18.04933,-11.15613 -13.12679,-32.81696 -6.07114,-34.78598c7.05565,-1.96738 6.72748,11.97983 13.61904,22.15145c3.11761,4.59602 7.38382,7.05729 11.15777,8.69814c5.25071,2.46127 17.06482,-1.47676 18.21342,-0.49554z" fill="#faa51f" stroke="none" stroke-width="1" stroke-linecap="butt" stroke-linejoin="miter"/><path d="M50.70068,120.61669c1.80329,4.59438 5.25071,12.79862 5.25071,12.79862c0,0 -6.39931,-2.627 -10.50143,-0.49225c-4.10212,2.13146 -1.96902,9.51528 -4.10212,7.21809c-1.47676,-2.62372 -3.77395,-6.89156 -4.10212,-12.96106c-0.16244,-6.07114 3.60987,-13.45496 7.05565,-13.78313c3.60987,0 4.92254,2.95189 6.39931,7.21973z" fill="#ffffff" stroke="none" stroke-width="1" stroke-linecap="butt" stroke-linejoin="miter"/><path d="M86.96343,143.91345c1.14859,1.14859 3.44742,3.11925 -1.64085,7.87771c-5.08499,4.75846 -16.57093,3.2817 -17.8836,2.95353c-4.92254,-0.98451 -11.15777,-2.46127 -17.39463,-6.39931c-18.04933,-11.15613 -13.12679,-32.81696 -6.07114,-34.78598c7.05565,-1.96738 6.72748,11.97983 13.61904,22.15145c3.11761,4.59602 7.38382,7.05729 11.15777,8.69814c5.25071,2.46127 17.06482,-1.47676 18.21342,-0.49554z" fill="none" stroke="#8e5322" stroke-width="1.4" stroke-linecap="round" stroke-linejoin="round"/><path d="M108.78671,148.01721c0,0 -2.78944,9.02467 -1.47676,23.46577c0.49225,6.23522 12.14228,-0.82042 11.32185,11.32021c-0.32817,3.44742 -15.42397,3.11761 -18.86975,1.80657c-3.11761,-1.14859 -3.93804,-2.29719 -3.44742,-5.57888c1.80657,-11.97819 -4.26621,-25.76132 -4.26621,-25.76132" fill="#faa51f" stroke="#8e5322" stroke-width="1.4" stroke-linecap="round" stroke-linejoin="round"/><path d="M110.09939,130.13361c0,10.99368 2.78944,27.074 -16.73665,27.074c-19.52609,0 -17.72116,-14.76763 -17.72116,-25.76132c0,-10.99368 6.72748,-13.94721 17.72116,-13.94721c10.99368,0 16.73665,1.64085 16.73665,12.63453z" fill="#faa51f" stroke="#8e5322" stroke-width="1.4" stroke-linecap="round" stroke-linejoin="round"/><path d="M105.83318,134.89043c0,6.89156 1.47676,17.22891 -9.02467,17.22891c-10.49979,0 -9.67936,-9.35119 -9.67936,-16.24276c0,-6.89156 3.60987,-8.86058 9.67936,-8.86058c6.07114,-0.00164 9.02467,0.98451 9.02467,7.87443z" fill="#ffffff" stroke="none" stroke-width="1" stroke-linecap="butt" stroke-linejoin="miter"/><path d="M92.2125,157.69658c0,0 -2.46127,14.93172 -1.96902,21.82328c0.32817,3.44742 -0.98287,5.25236 -4.42865,5.90869c-3.60987,0.65634 -16.08031,0.98451 -16.2444,-3.11761c-0.65634,-12.46881 8.53241,-4.75846 9.51692,-10.99368c2.1331,-14.27538 -2.1331,-23.30004 -2.1331,-23.30004" fill="#faa51f" stroke="#8e5322" stroke-width="1.4" stroke-linecap="round" stroke-linejoin="round"/><path d="M78.51306,143.34244c-0.27238,-0.1526 -12.74775,3.19965 -12.97911,3.00275c-5.47223,-4.65837 0.54968,-21.16366 11.25622,-29.66654l12.96106,2.29719" fill="#faa51f" stroke="#8e5322" stroke-width="1.4" stroke-linecap="round" stroke-linejoin="round"/><path d="M80.72821,129.47563c-1.91159,5.14406 -5.05709,11.37928 -5.05709,11.37928" fill="#faa51f" stroke="#8e5322" stroke-width="1.4" stroke-linecap="round" stroke-linejoin="round"/><path d="M74.26983,140.6334l1.96738,0.4939" fill="none" stroke="#8e5322" stroke-width="1.4" stroke-linecap="round" stroke-linejoin="round"/><path d="M97.95711,41.36208l11.81411,-11.48594l4.59438,18.3775c0,0 10.17326,7.54954 13.29087,12.79862c5.08663,8.69814 5.24907,15.75214 5.24907,15.75214c0,0 11.32349,3.44578 13.29251,12.47045c1.96902,9.02467 -5.08663,26.25357 -34.94843,32.16063c-29.86344,5.90705 -53.82146,-2.1331 -65.14167,-20.34652c-11.15777,-18.04933 6.56339,-39.70853 5.57724,-38.39585l-3.60987,-30.02752l20.67469,13.45496c0,0 7.05401,-2.78944 14.60355,-3.11761c2.7878,-0.16408 7.87607,0.16408 10.33734,0.32817z" fill="#faa51f" stroke="none" stroke-width="1" stroke-linecap="butt" stroke-linejoin="miter"/><path d="M132.25084,77.62647c0,0 10.8296,2.62536 12.79862,11.65002c2.46127,9.02467 -5.58052,26.08949 -33.80147,31.17612c-6.39931,1.14859 -12.14228,2.29719 -21.16694,2.29719c-13.94721,0.16244 -29.2071,-8.53241 -28.0585,-26.74583c0.6547,-10.50143 13.94721,-9.681 13.94721,-9.681l11.65002,-2.95353c0,0 11.65002,2.62372 18.54158,1.14859c6.89156,-1.47676 6.89156,-6.89156 6.89156,-6.89156l14.43946,-4.26785l3.93804,3.2817z" fill="#ffffff" stroke="none" stroke-width="1" stroke-linecap="butt" stroke-linejoin="miter"/><path d="M64.97606,43.66091l8.53241,5.90705" fill="none" stroke="#8e5322" stroke-width="1.4" stroke-linecap="round" stroke-linejoin="round"/><path d="M97.95711,41.36208l11.81411,-11.48594l4.59438,18.3775c0,0 10.17326,7.54954 13.29087,12.79862c5.08663,8.69814 5.24907,15.75214 5.24907,15.75214c0,0 11.32349,3.44578 13.29251,12.47045c1.96902,9.02467 -5.08663,26.25357 -34.94843,32.16063c-29.86344,5.90705 -53.82146,-2.1331 -65.14167,-20.34652c-11.15777,-18.04933 6.56339,-39.70853 5.57724,-38.39585l-3.60987,-30.02752l20.67469,13.45496c0,0 7.05401,-2.78944 14.60355,-3.11761c2.7878,-0.16408 7.87607,0.16408 10.33734,0.32817z" fill="none" stroke="#8e5322" stroke-width="1.4" stroke-linecap="round" stroke-linejoin="round"/><path d="M45.1218,93.70514c0,0 -5.74297,0.82042 -8.6965,0.98451c-2.95353,0.16408 -9.51692,-0.49225 -9.51692,-0.49225" fill="none" stroke="#8e5322" stroke-width="1.4" stroke-linecap="round" stroke-linejoin="round"/><path d="M25.59735,78.44689c0,0 3.60987,0.6547 10.17326,3.60987c5.90541,2.62536 9.67936,5.4148 9.67936,5.4148" fill="none" stroke="#8e5322" stroke-width="1.4" stroke-linecap="round" stroke-linejoin="round"/><path d="M124.0466,61.21798c4.59438,7.05565 4.75682,15.25989 0.32817,18.04933c-4.43029,2.95353 -11.81411,-0.49225 -16.40848,-7.71199c-4.59602,-7.05565 -4.75846,-15.25989 -0.32817,-18.04933c4.43029,-2.78944 11.81411,0.65634 16.40848,7.71199z" fill="#ffffff" stroke="#8e5322" stroke-width="1.4" stroke-linecap="round" stroke-linejoin="round"/><path d="M123.88251,67.1234c0.4939,1.64085 -0.32653,3.2817 -1.96738,3.77395c-1.47676,0.4939 -3.11761,-0.49225 -3.60987,-2.29555c-0.49225,-1.64085 0.32817,-3.2817 1.96902,-3.77395c1.63921,-0.32817 3.11597,0.6547 3.60823,2.29555" fill="#414142" stroke="none" stroke-width="1" stroke-linecap="butt" stroke-linejoin="miter"/><path d="M85.97892,66.30297c4.59438,7.05565 4.10212,15.58806 -1.14859,19.03548c-5.25071,3.44578 -13.29087,0.49225 -17.8836,-6.72912c-4.59602,-7.05565 -4.10212,-15.58806 1.14695,-19.03384c5.25071,-3.28006 13.29087,-0.32653 17.88525,6.72748z" fill="#ffffff" stroke="#8e5322" stroke-width="1.4" stroke-linecap="round" stroke-linejoin="round"/><path d="M85.48667,72.70392c0,1.64085 -1.31268,3.11597 -2.78944,3.11597c-1.64085,0 -2.78944,-1.31268 -2.78944,-3.11597c0,-1.64085 1.31268,-3.11761 2.78944,-3.11761c1.47676,0 2.78944,1.31104 2.78944,3.11761" fill="#414142" stroke="none" stroke-width="1" stroke-linecap="butt" stroke-linejoin="miter"/><path d="M104.02825,82.54901c2.78944,-0.32817 6.56339,-2.46127 7.05565,0.6547c0,1.31432 -2.62536,6.72912 -5.57724,6.89156c-3.2817,0.16573 -9.02467,-3.93639 -8.86058,-6.39767c0.16408,-2.46127 4.9209,-0.82042 7.38218,-1.14859z" fill="#5f4b43" stroke="#8e5322" stroke-width="1.4" stroke-linecap="round" stroke-linejoin="round"/><path d="M102.05759,109.78545c-8.85894,1.80657 -12.96106,-1.96902 -12.96106,-1.96902" fill="#ffffff" stroke="#8e5322" stroke-width="1.4" stroke-linecap="round" stroke-linejoin="round"/><path d="M77.49902,141.9871c8.46514,4.6354 8.15994,11.70909 6.02355,13.50746c-4.98982,4.27769 -12.32769,0.83191 -19.66064,-11.43507" fill="#faa51f" stroke="#8e5322" stroke-width="1.4" stroke-linecap="round" stroke-linejoin="round"/></g></g></g></svg>