<svg version="1.1" xmlns="http://www.w3.org/2000/svg" xmlns:xlink="http://www.w3.org/1999/xlink" width="29.61844" height="30.84626" viewBox="0,0,29.61844,30.84626"><g transform="translate(-222.63156,-161.34124)"><g data-paper-data="{&quot;isPaintingLayer&quot;:true}" fill-rule="nonzero" stroke="#000000" stroke-width="1" stroke-linecap="butt" stroke-linejoin="miter" stroke-miterlimit="10" stroke-dasharray="" stroke-dashoffset="0" style="mix-blend-mode: normal"><path d="M228.41831,184.6042c0,0 -3.63697,-7.22889 -4.97296,-9.88433c-0.8318,-1.65331 0.00559,-5.66733 2.32879,-6.83617c4.08962,-2.05755 9.66284,-4.86152 12.01007,-6.04246c1.75353,-0.88223 5.82213,0.6635 6.65394,2.31682c1.33599,2.65544 4.97296,9.88433 4.97296,9.88433z" data-paper-data="{&quot;index&quot;:null}" fill="#ff0000"/><path d="M228.25,191.6875v-7.125h23.5v7.125z" data-paper-data="{&quot;index&quot;:null}" fill="#ff0000"/><path d="M241.99448,173.02179c-1.88338,0.94756 -4.17833,0.18892 -5.12589,-1.69446c-0.94756,-1.88338 -0.18892,-4.17833 1.69446,-5.12589c1.88338,-0.94756 4.17833,-0.18892 5.12589,1.69446c0.94756,1.88338 0.18892,4.17833 -1.69446,5.12589z" data-paper-data="{&quot;index&quot;:null}" fill="#ffffff"/><path d="M242.85107,169.32752c-0.44516,0.22397 -0.98761,0.04465 -1.21158,-0.40051c-0.22397,-0.44516 -0.04465,-0.98761 0.40051,-1.21158c0.44516,-0.22397 0.98761,-0.04465 1.21158,0.40051c0.22397,0.44516 0.04465,0.98761 -0.40051,1.21158z" data-paper-data="{&quot;index&quot;:null}" fill="#000000"/></g></g></svg>