<svg version="1.1" xmlns="http://www.w3.org/2000/svg" xmlns:xlink="http://www.w3.org/1999/xlink" width="147.17948" height="133.99923" viewBox="0,0,147.17948,133.99923"><g transform="translate(-166.41026,-122.0094)"><g data-paper-data="{&quot;isPaintingLayer&quot;:true}" fill-rule="nonzero" stroke="none" stroke-linecap="butt" stroke-linejoin="miter" stroke-miterlimit="10" stroke-dasharray="" stroke-dashoffset="0" style="mix-blend-mode: normal"><g stroke-width="1"><path d="M280.649,189.76403c0,22.77344 -19.63496,41.24053 -43.86009,41.24053c-24.22509,0 -43.85852,-18.45924 -43.85852,-41.24053c0,-22.77344 19.63185,-33.35203 43.85852,-33.35203c24.22351,-0.00158 43.86009,10.58016 43.86009,33.35203z" fill="#ec1c2c"/><g fill="#231f20"><path d="M285.56049,189.32353c0,25.32718 -21.83287,45.86041 -48.76843,45.86041c-26.93086,0 -48.76528,-20.53324 -48.76528,-45.86041c0,-22.32041 16.96368,-32.36912 39.42518,-34.4447c0,0 7.09836,-0.90928 14.32216,-0.2963c24.58722,1.14439 43.78642,11.00028 43.78642,34.74099zM278.12034,189.99603c0,-19.75568 -15.68759,-29.76051 -35.97629,-31.22785c0,0 -12.86582,0.18027 -13.25618,0.22573c-19.0393,2.10223 -33.41317,12.08668 -33.41317,30.999c0,21.45505 18.49527,38.85454 41.31891,38.85454c22.82206,0 41.31737,-17.39638 41.32675,-38.85143z"/><path d="M250.82734,168.85608c-5.59342,0.28372 -10.95172,0.42486 -16.5561,1.05348c-3.74199,0.42012 -7.34763,0.45304 -10.11924,-2.37345c-0.60198,-0.61924 0.18501,-1.68679 0.93746,-1.2118c1.85296,1.16165 3.72008,1.63196 5.5981,1.72287c0.12225,0.10033 6.7002,-0.76818 9.70385,-1.72129c3.62444,-0.98764 7.25202,-1.80282 10.86235,-0.60982c1.72602,0.57063 1.39208,3.04438 -0.42644,3.14001z"/></g><path d="M207.70873,189.54299c0,5.37864 2.90017,9.7383 -0.13167,9.7383c-3.03184,0 -5.48682,-4.35966 -5.48682,-9.7383c0,-5.37711 2.45498,-9.73676 5.48682,-9.73676c3.03184,0 0.13167,4.36123 0.13167,9.73676z" fill="#ffffff"/></g><g stroke-width="1"><path d="M225.83249,143.17936c1.60058,-0.95631 3.19647,-1.91568 4.79547,-2.87352c1.1507,1.76832 2.30762,3.4943 3.2357,5.45859c3.38929,7.15481 2.64305,14.71252 2.54588,22.27965c-0.5879,0.13951 -1.53163,0.23984 -2.11323,0.34329c0.40443,-9.63802 -1.88903,-18.47336 -8.46378,-25.20804z" fill="#99661d"/><path d="M240.22522,164.73784c0,0 -0.36056,2.94093 -0.39351,3.49588c0,0 -5.91168,1.76205 -8.23025,0.88105l-0.0721,-2.52239c0.04703,-5.04005 -1.52063,-10.45318 -2.44871,-12.14783c-0.44365,-0.80894 -2.23078,-5.43348 -7.68157,-10.27913c-0.93431,-0.82617 -0.6192,-2.37503 0.3794,-2.97543c2.83276,-1.69937 5.65772,-3.39866 8.48732,-5.09803c0.90928,-0.54399 1.98309,-0.13793 2.59918,0.68192c8.66602,11.53485 7.62511,26.77101 7.3602,27.96397zM236.24961,165.85716c0.17559,-6.96357 0.76818,-13.43488 -2.38595,-20.09274c-0.92808,-1.96429 -2.085,-3.69027 -3.2357,-5.45859c-1.599,0.95784 -3.19489,1.91722 -4.79547,2.87352c6.21108,6.36155 8.74759,14.0604 8.66917,23.01803v1.80593l1.73856,-0.22104z" fill="#231f20"/></g><path d="M166.41026,256.00863v-133.99923h147.17948v133.99923z" fill="none" stroke-width="0"/></g></g></svg>