<svg version="1.1" xmlns="http://www.w3.org/2000/svg" xmlns:xlink="http://www.w3.org/1999/xlink" width="308" height="308" viewBox="0,0,308,308"><g transform="translate(-86,-26)"><g data-paper-data="{&quot;isPaintingLayer&quot;:true}" fill-rule="nonzero" stroke-linecap="butt" stroke-linejoin="miter" stroke-miterlimit="10" stroke-dasharray="" stroke-dashoffset="0" style="mix-blend-mode: normal"><path d="M87,180c0,-84.49957 68.50043,-153 153,-153c84.49957,0 153,68.50043 153,153c0,84.49957 -68.50043,153 -153,153c-84.49957,0 -153,-68.50043 -153,-153z" fill="#ff9c00" stroke="#000000" stroke-width="2"/><path d="M203.65623,88.48827c0,-18.32895 14.85855,-33.1875 33.1875,-33.1875c18.32895,0 33.1875,14.85855 33.1875,33.1875c0,18.32895 -14.85855,33.1875 -33.1875,33.1875c-18.32895,0 -33.1875,-14.85855 -33.1875,-33.1875z" fill="#ffba4c" stroke="none" stroke-width="0"/><path d="M283.53123,126.73826c0,-18.32895 14.85855,-33.1875 33.1875,-33.1875c18.32895,0 33.1875,14.85855 33.1875,33.1875c0,18.32895 -14.85855,33.1875 -33.1875,33.1875c-18.32895,0 -33.1875,-14.85855 -33.1875,-33.1875z" fill="#ffba4c" stroke="none" stroke-width="0"/><path d="M303.78123,209.98827c0,-18.32895 14.85855,-33.1875 33.1875,-33.1875c18.32895,0 33.1875,14.85855 33.1875,33.1875c0,18.32895 -14.85855,33.1875 -33.1875,33.1875c-18.32895,0 -33.1875,-14.85855 -33.1875,-33.1875z" fill="#ffba4c" stroke="none" stroke-width="0"/><path d="M245.28123,267.36326c0,-18.32895 14.85855,-33.1875 33.1875,-33.1875c18.32895,0 33.1875,14.85855 33.1875,33.1875c0,18.32895 -14.85855,33.1875 -33.1875,33.1875c-18.32895,0 -33.1875,-14.85855 -33.1875,-33.1875z" fill="#ffba4c" stroke="none" stroke-width="0"/><path d="M163.15623,269.61326c0,-18.32895 14.85855,-33.1875 33.1875,-33.1875c18.32895,0 33.1875,14.85855 33.1875,33.1875c0,18.32895 -14.85855,33.1875 -33.1875,33.1875c-18.32895,0 -33.1875,-14.85855 -33.1875,-33.1875z" fill="#ffba4c" stroke="none" stroke-width="0"/><path d="M110.28123,202.11326c0,-18.32895 14.85855,-33.1875 33.1875,-33.1875c18.32895,0 33.1875,14.85855 33.1875,33.1875c0,18.32895 -14.85855,33.1875 -33.1875,33.1875c-18.32895,0 -33.1875,-14.85855 -33.1875,-33.1875z" fill="#ffba4c" stroke="none" stroke-width="0"/><path d="M126.03123,119.98826c0,-18.32895 14.85855,-33.1875 33.1875,-33.1875c18.32895,0 33.1875,14.85855 33.1875,33.1875c0,18.32895 -14.85855,33.1875 -33.1875,33.1875c-18.32895,0 -33.1875,-14.85855 -33.1875,-33.1875z" fill="#ffba4c" stroke="none" stroke-width="0"/></g></g></svg>