<svg version="1.1" xmlns="http://www.w3.org/2000/svg" xmlns:xlink="http://www.w3.org/1999/xlink" width="31.5" height="9.5" viewBox="0,0,31.5,9.5"><g transform="translate(-224.25,-182.6875)"><g data-paper-data="{&quot;isPaintingLayer&quot;:true}" fill-rule="nonzero" stroke="#000000" stroke-width="1" stroke-linecap="butt" stroke-linejoin="miter" stroke-miterlimit="10" stroke-dasharray="" stroke-dashoffset="0" style="mix-blend-mode: normal"><path d="M228.25,189.05114c0,0 0,-2.94263 0,-4.02357c0,-0.67301 2.55211,-1.84007 5.15278,-1.84007c4.57804,0 10.81688,0 13.44445,0c1.96295,0 4.90277,1.16706 4.90277,1.84007c0,1.08094 0,4.02357 0,4.02357z" data-paper-data="{&quot;index&quot;:null}" fill="#ff0000"/><path d="M228.25,191.6875v-2.59091h23.5v2.59091z" data-paper-data="{&quot;index&quot;:null}" fill="#ff0000"/><path d="M245.58333,187.50749c-2.10832,0 -3.81746,-0.62151 -3.81746,-1.38817c0,-0.76666 1.70914,-1.38817 3.81746,-1.38817c2.10832,0 3.81746,0.62151 3.81746,1.38817c0,0.76666 -1.70914,1.38817 -3.81746,1.38817z" data-paper-data="{&quot;index&quot;:null}" fill="#ffffff"/><path d="M248.00888,186.44743c-0.49833,0 -0.90231,-0.1469 -0.90231,-0.32811c0,-0.18121 0.40398,-0.32811 0.90231,-0.32811c0.49833,0 0.90231,0.1469 0.90231,0.32811c0,0.18121 -0.40398,0.32811 -0.90231,0.32811z" data-paper-data="{&quot;index&quot;:null}" fill="#000000"/><path d="M224.75,189.05114c0,0 0,-2.94263 0,-4.02357c0,-0.67301 3.31231,-1.84007 6.68765,-1.84007c5.94171,0 14.03893,0 17.44918,0c2.54766,0 6.36317,1.16706 6.36317,1.84007c0,1.08094 0,4.02357 0,4.02357z" data-paper-data="{&quot;index&quot;:null}" fill="#ff0000"/><path d="M224.75,191.6875v-2.59091h30.5v2.59091z" data-paper-data="{&quot;index&quot;:null}" fill="#ff0000"/><path d="M247.24645,187.50749c-2.73633,0 -4.95458,-0.62151 -4.95458,-1.38817c0,-0.76666 2.21825,-1.38817 4.95458,-1.38817c2.73633,0 4.95458,0.62151 4.95458,1.38817c0,0.76666 -2.21825,1.38817 -4.95458,1.38817z" data-paper-data="{&quot;index&quot;:null}" fill="#ffffff"/><path d="M250.3945,186.44743c-0.64677,0 -1.17108,-0.1469 -1.17108,-0.32811c0,-0.18121 0.52431,-0.32811 1.17108,-0.32811c0.64677,0 1.17108,0.1469 1.17108,0.32811c0,0.18121 -0.52431,0.32811 -1.17108,0.32811z" data-paper-data="{&quot;index&quot;:null}" fill="#000000"/></g></g></svg>