<svg version="1.1" xmlns="http://www.w3.org/2000/svg" xmlns:xlink="http://www.w3.org/1999/xlink" width="55.30053" height="29.08024" viewBox="0,0,55.30053,29.08024"><g transform="translate(-201.82081,-165.5032)"><g data-paper-data="{&quot;isPaintingLayer&quot;:true}" fill-rule="nonzero" stroke-linecap="butt" stroke-linejoin="miter" stroke-miterlimit="10" stroke-dasharray="" stroke-dashoffset="0" style="mix-blend-mode: normal"><path d="M209.25424,193.2488l-7.39658,-1.43737" fill="none" stroke="none" stroke-width="0.85737"/><path d="M209.25424,193.2488l-7.39658,-1.43737" fill="none" stroke="#d9c400" stroke-width="0.38642"/><path d="M203.15998,194.45003l5.16406,-3.48341" fill="none" stroke="none" stroke-width="0.85737"/><path d="M203.15998,194.45003l5.16406,-3.48341" fill="none" stroke="#d9c400" stroke-width="0.32186"/><path d="M216.4348,185.99336h-3.55709v-1.15221h1.85345v-1.55282h-1.85345v-1.30308h1.85345v-1.55232h-1.85345v-2.25402h3.55709v7.81445" data-paper-data="{&quot;index&quot;:null}" fill="#b38a00" stroke="none" stroke-width="0.85737"/><path d="M246.25501,174.86253c-1.20075,0 -2.17412,0.97337 -2.17412,2.17412c0,1.19982 0.97337,2.17318 2.17412,2.17318c1.20075,0 2.17411,-0.97337 2.17411,-2.17318c0,-1.20075 -0.97336,-2.17412 -2.17411,-2.17412zM253.06801,174.86253c-1.20075,0 -2.17411,0.97337 -2.17411,2.17412c0,1.19982 0.97336,2.17318 2.17411,2.17318c1.20081,0 2.17411,-0.97337 2.17411,-2.17318c0,-1.20075 -0.9733,-2.17412 -2.17411,-2.17412zM242.70935,172.10468c0,0.5647 0.12746,1.09899 0.3549,1.57563c0.83348,-0.81156 1.97286,-1.31256 3.22977,-1.31256c1.31495,0 2.50144,0.54761 3.34347,1.42725c0.26306,-0.50572 0.412,-1.08041 0.412,-1.69177c0,-2.02708 -1.64321,-3.66934 -3.66984,-3.66934c-2.02758,0.00095 -3.6703,1.64366 -3.6703,3.67079zM243.00998,180.26409c-0.1936,0.44667 -0.30113,0.94001 -0.30113,1.4581c0,2.02713 1.64321,3.67034 3.66985,3.67034c2.02663,0 3.66984,-1.64321 3.66984,-3.67034c0,-0.60609 -0.14653,-1.17651 -0.34918,-1.58656c-0.84586,0.91816 -2.05854,1.49428 -3.40629,1.49428c-1.2831,0 -2.44484,-0.52236 -3.28309,-1.36583zM241.84302,178.69173c-0.28643,-0.91388 -0.38681,-2.44195 0,-3.4657l-1.78881,1.71452zM251.80544,181.76026c0,3.01809 -2.44673,5.46482 -5.46482,5.46482c-3.01809,0 -5.46482,-2.44673 -5.46482,-5.46482c0,-1.06897 -2.12462,-3.73165 -3.17651,-4.98429c1.10232,-0.90201 3.17651,-3.55759 3.17651,-4.63367c0,-3.01809 2.44673,-5.46437 5.46482,-5.46437c3.01809,0 5.46482,2.44723 5.46482,5.46437c0,0.36866 -0.03662,0.72928 -0.10659,1.07845c0.42771,-0.15321 0.88869,-0.23693 1.36872,-0.23693c2.23926,0 4.05376,1.81401 4.05376,4.05376c0,2.23882 -1.8145,4.05376 -4.05376,4.05376c-0.46765,0 -0.91721,-0.0794 -1.33587,-0.22499c0.0485,0.2897 0.07374,0.58895 0.07374,0.89391z" data-paper-data="{&quot;index&quot;:null}" fill="#b38a00" stroke="none" stroke-width="0.85737"/><path d="M239.82825,178.95485h-26.95054v-4.10753h26.95054z" data-paper-data="{&quot;index&quot;:null}" fill="#b38a00" stroke="none" stroke-width="0.85737"/><path d="M239.52756,178.85492c0,0.38681 -0.29158,0.70126 -0.65126,0.70126v0c-0.35968,0 -0.65132,-0.31401 -0.65132,-0.70126v-3.90772c0,-0.38725 0.29164,-0.7017 0.65132,-0.7017v0c0.35968,0 0.65126,0.31401 0.65126,0.7017v3.90772z" data-paper-data="{&quot;index&quot;:null}" fill="#b38a00" stroke="none" stroke-width="0.85737"/><path d="M238.07517,178.85492c0,0.38681 -0.29164,0.70126 -0.65132,0.70126v0c-0.35968,0 -0.65126,-0.31401 -0.65126,-0.70126v-3.90772c0,-0.38725 0.29158,-0.7017 0.65126,-0.7017v0c0.35968,0 0.65132,0.31401 0.65132,0.7017v3.90772z" data-paper-data="{&quot;index&quot;:null}" fill="#b38a00" stroke="none" stroke-width="0.85737"/><path d="M221.11747,183.56378h-2.05326v-4.80924h2.05326v4.80924" data-paper-data="{&quot;index&quot;:null}" fill="#b38a00" stroke="none" stroke-width="0.85737"/><path d="M222.99806,186.29832l1.38492,7.12368" data-paper-data="{&quot;index&quot;:null}" fill="none" stroke="none" stroke-width="0.85737"/><path d="M222.99806,186.29832l1.38492,7.12368" data-paper-data="{&quot;index&quot;:null}" fill="none" stroke="#f4e400" stroke-width="0.38642"/><path d="M221.82111,191.59995l4.06991,-6.02952" data-paper-data="{&quot;index&quot;:null}" fill="none" stroke="none" stroke-width="0.85737"/><path d="M221.82111,191.59995l4.06991,-6.02952" data-paper-data="{&quot;index&quot;:null}" fill="none" stroke="#c19e00" stroke-width="0.32186"/><path d="M219.52331,169.86209l-6.31827,-1.57519" data-paper-data="{&quot;index&quot;:null}" fill="none" stroke="none" stroke-width="0.85737"/><path d="M219.52331,169.86209l-6.31827,-1.57519" data-paper-data="{&quot;index&quot;:null}" fill="none" stroke="#c19e00" stroke-width="0.38642"/><path d="M216.67362,165.54997l-1.7564,7.04139" data-paper-data="{&quot;index&quot;:null}" fill="none" stroke="none" stroke-width="0.85737"/><path d="M216.67362,165.54997l-1.7564,7.04139" data-paper-data="{&quot;index&quot;:null}" fill="none" stroke="#f4e400" stroke-width="0.38642"/><path d="M217.66747,171.96718l-2.95294,-4.91627" data-paper-data="{&quot;index&quot;:null}" fill="none" stroke="none" stroke-width="0.85737"/><path d="M217.66747,171.96718l-2.95294,-4.91627" data-paper-data="{&quot;index&quot;:null}" fill="none" stroke="#d9c400" stroke-width="0.32186"/><path d="M213.20743,170.48911l6.23786,-3.74454" data-paper-data="{&quot;index&quot;:null}" fill="none" stroke="none" stroke-width="0.85737"/><path d="M213.20743,170.48911l6.23786,-3.74454" data-paper-data="{&quot;index&quot;:null}" fill="none" stroke="#d9c400" stroke-width="0.32186"/><path d="M237.7093,171.23741l-3.50999,-0.87582" data-paper-data="{&quot;index&quot;:null}" fill="none" stroke="none" stroke-width="0.85737"/><path d="M237.7093,171.23741l-3.50999,-0.87582" data-paper-data="{&quot;index&quot;:null}" fill="none" stroke="#d9c400" stroke-width="0.2146"/><path d="M235.58133,172.86014l0.97431,-3.91055" data-paper-data="{&quot;index&quot;:null}" fill="none" stroke="none" stroke-width="0.85737"/><path d="M235.58133,172.86014l0.97431,-3.91055" data-paper-data="{&quot;index&quot;:null}" fill="none" stroke="#f4e400" stroke-width="0.2146"/><path d="M235.46859,169.78401l1.64032,2.72983" data-paper-data="{&quot;index&quot;:null}" fill="none" stroke="none" stroke-width="0.85737"/><path d="M235.46859,169.78401l1.64032,2.72983" data-paper-data="{&quot;index&quot;:null}" fill="none" stroke="#c19e00" stroke-width="0.17876"/><path d="M234.63178,171.69318l3.46382,-2.07995" data-paper-data="{&quot;index&quot;:null}" fill="none" stroke="none" stroke-width="0.85737"/><path d="M234.63178,171.69318l3.46382,-2.07995" data-paper-data="{&quot;index&quot;:null}" fill="none" stroke="#d9c400" stroke-width="0.17876"/></g></g></svg>