<svg version="1.1" xmlns="http://www.w3.org/2000/svg" xmlns:xlink="http://www.w3.org/1999/xlink" width="66.66667" height="68" viewBox="0,0,66.66667,68"><g transform="translate(-204.16667,-144.16667)"><g data-paper-data="{&quot;isPaintingLayer&quot;:true}" fill-rule="nonzero" stroke-linecap="butt" stroke-linejoin="miter" stroke-miterlimit="10" stroke-dasharray="" stroke-dashoffset="0" style="mix-blend-mode: normal"><path d="M262.3,160.6v25.2c0,0.5 -0.2,1 -0.6,1.2c-3.2,2.8 -7.2,4.2 -11.3,4.2c-4.1,0 -8.1,-1.5 -11.3,-4.2c-2.6,-2.2 -5.8,-3.5 -9.2,-3.5c-3.1,0 -6.1,1 -8.6,3v16.7c0,1 -0.8,1.8 -1.8,1.8c-1,0 -1.8,-0.8 -1.8,-1.8v-42.6c0,-0.8 0.5,-1.3 1,-1.6c3.2,-2.6 7,-4 11,-4c4.1,0 8.2,1.5 11.4,4.2c2.6,2.2 5.8,3.4 9.2,3.4c3.4,0 6.6,-1.2 9.2,-3.4c0.6,-0.4 1.3,-0.5 1.9,-0.2c0.6,0.3 0.9,0.9 0.9,1.6z" fill="#549a10" stroke="#000000" stroke-width="4"/><path d="M262.3,160.6v25.2c0,0.5 -0.2,1 -0.6,1.2c-3.2,2.8 -7.2,4.2 -11.3,4.2c-4.1,0 -8.1,-1.5 -11.3,-4.2c-2.6,-2.2 -5.8,-3.5 -9.2,-3.5c-3.1,0 -6.1,1 -8.6,3v16.7c0,1 -0.8,1.8 -1.8,1.8c-1,0 -1.8,-0.8 -1.8,-1.8v-42.6c0,-0.8 0.5,-1.3 1,-1.6c3.2,-2.6 7,-4 11,-4c4.1,0 8.2,1.5 11.4,4.2c2.6,2.2 5.8,3.4 9.2,3.4c3.4,0 6.6,-1.2 9.2,-3.4c0.6,-0.4 1.3,-0.5 1.9,-0.2c0.6,0.3 0.9,0.9 0.9,1.6z" fill="#549a10" stroke="none" stroke-width="1"/><path d="M204.16667,212.16667v-68h66.66667v68z" fill="none" stroke="none" stroke-width="0"/></g></g></svg>